<?xml version="1.0" encoding="UTF-8" standalone="no"?><svg xmlns="http://www.w3.org/2000/svg" xmlns:xlink="http://www.w3.org/1999/xlink" fill="#000000" height="185" preserveAspectRatio="xMidYMid meet" version="1" viewBox="-0.3 -0.1 364.6 185.0" width="364.6" zoomAndPan="magnify"><defs><clipPath id="a"><path d="M 266 131 L 364.320312 131 L 364.320312 162 L 266 162 Z M 266 131"/></clipPath><clipPath id="b"><path d="M 18 180 L 71 180 L 71 184.910156 L 18 184.910156 Z M 18 180"/></clipPath><clipPath id="c"><path d="M 293 179 L 347 179 L 347 184.910156 L 293 184.910156 Z M 293 179"/></clipPath></defs><g><g id="change1_1"><path d="M 133.132812 0.25 C 131.863281 0.59375 131.054688 1.917969 131.398438 3.1875 L 156.578125 96.539062 C 156.917969 97.804688 158.21875 98.289062 159.484375 97.949219 L 159.519531 97.9375 C 160.789062 97.597656 161.667969 96.523438 161.324219 95.257812 L 136.148438 1.90625 C 135.804688 0.636719 134.4375 -0.101562 133.132812 0.25" fill="#ffbd59"/></g><g id="change1_2"><path d="M 52.113281 49.15625 C 51.21875 48.261719 49.695312 48.207031 48.71875 49.1875 C 47.789062 50.117188 47.792969 51.628906 48.722656 52.558594 L 117.203125 120.808594 C 117.808594 121.410156 118.691406 121.644531 119.511719 121.421875 C 119.910156 121.316406 120.28125 121.101562 120.601562 120.777344 C 121.527344 119.847656 121.527344 118.335938 120.597656 117.410156 L 52.113281 49.15625" fill="#ffbd59"/></g><g id="change1_3"><path d="M 1.769531 136.6875 L 95.203125 161.558594 C 95.609375 161.664062 96.035156 161.664062 96.4375 161.558594 C 97.257812 161.335938 97.902344 160.6875 98.128906 159.832031 C 98.292969 159.21875 98.207031 158.574219 97.886719 158.023438 C 97.570312 157.476562 97.054688 157.082031 96.4375 156.917969 L 3.007812 132.046875 C 2.601562 131.941406 2.175781 131.941406 1.773438 132.050781 C 0.953125 132.269531 0.308594 132.917969 0.0820312 133.773438 C -0.257812 135.042969 0.5 136.351562 1.769531 136.6875" fill="#ffbd59"/></g><g clip-path="url(#a)" id="change1_13"><path d="M 361.292969 131.394531 L 267.941406 156.574219 C 266.675781 156.917969 265.933594 158.285156 266.285156 159.589844 C 266.628906 160.855469 267.953125 161.667969 269.222656 161.324219 L 362.574219 136.144531 C 363.84375 135.804688 364.582031 134.4375 364.230469 133.132812 C 363.886719 131.863281 362.5625 131.054688 361.292969 131.394531" fill="#ffbd59"/></g><g id="change1_4"><path d="M 242.976562 118.890625 C 242.976562 119.527344 243.226562 120.125 243.699219 120.597656 C 244.304688 121.199219 245.1875 121.433594 246.007812 121.214844 C 246.40625 121.105469 246.777344 120.890625 247.070312 120.59375 L 315.324219 52.113281 C 316.253906 51.183594 316.25 49.671875 315.292969 48.71875 C 314.691406 48.117188 313.808594 47.882812 312.988281 48.105469 C 312.585938 48.214844 312.21875 48.425781 311.925781 48.722656 L 243.671875 117.203125 C 243.222656 117.65625 242.972656 118.253906 242.976562 118.890625" fill="#ffbd59"/></g><g id="change1_5"><path d="M 204.648438 98.128906 C 205.050781 98.234375 205.476562 98.234375 205.878906 98.125 C 206.699219 97.90625 207.34375 97.257812 207.5625 96.4375 L 232.433594 3.003906 C 232.769531 1.734375 232.011719 0.425781 230.707031 0.078125 C 230.304688 -0.0273438 229.878906 -0.0273438 229.476562 0.0820312 C 228.65625 0.300781 228.011719 0.949219 227.789062 1.769531 L 202.921875 95.203125 C 202.585938 96.472656 203.34375 97.78125 204.648438 98.128906" fill="#ffbd59"/></g><g id="change1_6"><path d="M 183.671875 19.078125 C 183.222656 18.632812 182.621094 18.382812 181.949219 18.386719 C 181.742188 18.386719 181.53125 18.414062 181.332031 18.46875 C 180.292969 18.746094 179.570312 19.695312 179.570312 20.773438 L 179.648438 68.171875 C 179.652344 69.488281 180.722656 70.554688 182.074219 70.550781 C 182.28125 70.550781 182.492188 70.523438 182.691406 70.46875 C 183.730469 70.1875 184.453125 69.242188 184.453125 68.164062 L 184.371094 20.765625 C 184.371094 20.128906 184.125 19.53125 183.671875 19.078125" fill="#ffbd59"/></g><g id="change1_7"><path d="M 101.902344 40.222656 C 101.285156 40.058594 100.644531 40.144531 100.0625 40.484375 C 99.882812 40.589844 99.714844 40.714844 99.566406 40.863281 C 98.808594 41.625 98.65625 42.808594 99.195312 43.738281 L 122.964844 84.75 C 123.621094 85.886719 125.085938 86.277344 126.253906 85.597656 C 126.433594 85.492188 126.597656 85.367188 126.746094 85.21875 C 127.503906 84.457031 127.660156 83.273438 127.117188 82.34375 L 103.351562 41.332031 C 103.03125 40.78125 102.515625 40.386719 101.902344 40.222656" fill="#ffbd59"/></g><g id="change1_8"><path d="M 41.65625 99.421875 C 41.042969 99.585938 40.527344 99.980469 40.195312 100.5625 C 40.089844 100.746094 40.007812 100.9375 39.957031 101.140625 C 39.679688 102.179688 40.136719 103.28125 41.070312 103.816406 L 82.160156 127.449219 C 83.300781 128.105469 84.761719 127.710938 85.433594 126.539062 C 85.535156 126.359375 85.617188 126.164062 85.671875 125.964844 C 85.949219 124.925781 85.488281 123.824219 84.554688 123.285156 L 43.464844 99.65625 C 42.914062 99.339844 42.273438 99.253906 41.65625 99.421875" fill="#ffbd59"/></g><g clip-path="url(#b)" id="change1_12"><path d="M 19.082031 180.808594 C 18.632812 181.257812 18.386719 181.859375 18.386719 182.53125 C 18.386719 182.738281 18.414062 182.945312 18.46875 183.148438 C 18.75 184.1875 19.695312 184.910156 20.773438 184.910156 L 68.171875 184.828125 C 69.488281 184.828125 70.554688 183.757812 70.550781 182.40625 C 70.550781 182.199219 70.523438 181.988281 70.472656 181.789062 C 70.191406 180.75 69.242188 180.027344 68.164062 180.027344 L 20.765625 180.105469 C 20.128906 180.109375 19.53125 180.355469 19.082031 180.808594" fill="#ffbd59"/></g><g clip-path="url(#c)" id="change1_11"><path d="M 345.398438 183.671875 C 345.847656 183.21875 346.097656 182.621094 346.09375 181.949219 C 346.09375 181.738281 346.066406 181.53125 346.011719 181.332031 C 345.734375 180.292969 344.785156 179.566406 343.707031 179.570312 L 296.308594 179.648438 C 294.992188 179.652344 293.925781 180.722656 293.929688 182.070312 C 293.929688 182.28125 293.957031 182.488281 294.011719 182.691406 C 294.289062 183.726562 295.238281 184.453125 296.316406 184.449219 L 343.714844 184.371094 C 344.351562 184.371094 344.949219 184.121094 345.398438 183.671875" fill="#ffbd59"/></g><g id="change1_9"><path d="M 324.257812 101.898438 C 324.421875 101.285156 324.335938 100.640625 323.996094 100.0625 C 323.890625 99.878906 323.765625 99.714844 323.617188 99.566406 C 322.855469 98.808594 321.671875 98.652344 320.738281 99.195312 L 279.730469 122.960938 C 278.59375 123.621094 278.203125 125.082031 278.882812 126.25 C 278.988281 126.433594 279.113281 126.597656 279.261719 126.746094 C 280.023438 127.503906 281.207031 127.65625 282.140625 127.117188 L 323.148438 103.347656 C 323.699219 103.03125 324.09375 102.515625 324.257812 101.898438" fill="#ffbd59"/></g><g id="change1_10"><path d="M 265.058594 41.65625 C 264.894531 41.039062 264.5 40.527344 263.914062 40.191406 C 263.734375 40.089844 263.539062 40.007812 263.339844 39.953125 C 262.300781 39.679688 261.199219 40.136719 260.660156 41.070312 L 237.03125 82.160156 C 236.375 83.300781 236.769531 84.757812 237.941406 85.429688 C 238.121094 85.535156 238.316406 85.617188 238.515625 85.667969 C 239.554688 85.945312 240.65625 85.488281 241.195312 84.554688 L 264.824219 43.464844 C 265.144531 42.914062 265.226562 42.269531 265.058594 41.65625" fill="#ffbd59"/></g></g></svg>