<?xml version="1.0" encoding="UTF-8"?><svg xmlns="http://www.w3.org/2000/svg" xmlns:xlink="http://www.w3.org/1999/xlink" height="45.0" preserveAspectRatio="xMidYMid meet" version="1.0" viewBox="0.0 0.0 90.0 45.0" width="90.0" zoomAndPan="magnify"><g id="change1_1"><path d="M35.53,44.91c0.01-1.24,0.26-2.42,0.71-3.5L2.49,29.99l2.12-5.01l31.71,16.25c0.46-1.07,1.12-2.03,1.92-2.85 L11.26,15.1l3.85-3.85l23.27,26.98c0.85-0.83,1.86-1.51,2.98-1.98L25.55,4.33l5.04-2.05l10.93,33.91c1.05-0.41,2.18-0.65,3.38-0.66 L42.28,0h5.44l-2.63,35.53c1.24,0.01,2.42,0.26,3.5,0.71L60.01,2.49l5.01,2.12L48.77,36.31c1.07,0.46,2.03,1.12,2.85,1.92 L74.9,11.26l3.85,3.85L51.76,38.37c0.83,0.85,1.51,1.86,1.98,2.98l31.93-15.8l2.05,5.04L53.81,41.53c0.41,1.05,0.65,2.18,0.66,3.38 L90,42.28V45H0v-2.72L35.53,44.91z" fill="#F3E198"/></g><g id="change2_1"><path d="M54.84,45H35.16c0-5.43,4.41-9.84,9.84-9.84S54.84,39.57,54.84,45z" fill="#FCC22D"/></g></svg>