<svg xmlns="http://www.w3.org/2000/svg" viewBox="0 0 269.01 99.51"><defs><style>.logo-ms{fill:#221f1f}</style></defs><g id="layer_2" data-name="layer 2"><path class="logo-ms" d="M0 34.79h4.78L7.16 5.63H2.27V0h13.14l9 22.8a31.09 31.09 0 0 1 1 3.35h.11a25.86 25.86 0 0 1 1-3.35L35.42 0h13.13v5.63h-4.83L46 34.79h4.78v5.57h-16.5v-5.57h4.49l-1.48-20.35a24.4 24.4 0 0 1 .17-3.75h-.17a30.7 30.7 0 0 1-1 3.58l-7.7 18.59h-6.36L14.5 14.27a26 26 0 0 1-.91-3.58h-.23a24.35 24.35 0 0 1 .17 3.75l-1.48 20.35h4.55v5.57H0zm69.76-12.33h1.82v-1c0-3.7-2.33-5-5.34-5a16 16 0 0 0-8.19 2.79l-2.67-5a19.71 19.71 0 0 1 11.48-3.58c7.79 0 11.94 4 11.94 11.42v11.6A1.11 1.11 0 0 0 80.05 35h2.62v5.4h-6.82c-2.67 0-3.69-1.42-3.69-3.07V37a5.7 5.7 0 0 1 .17-1.48h-.11A10.09 10.09 0 0 1 63.06 41c-4.95 0-9.61-2.9-9.61-8.81 0-8.83 11.65-9.73 16.31-9.73zm-4.83 13.18c3.92 0 6.71-4.21 6.71-7.84v-1h-1.19c-2.84 0-9.72.45-9.72 4.83a3.91 3.91 0 0 0 4.2 4.01zM85 35h4.21V18A1.14 1.14 0 0 0 88 16.77h-3.24v-5.4h7.56c2.56 0 3.87 1.08 3.87 3.52v1.71a13.24 13.24 0 0 1-.11 1.82h.11c1.3-4.15 4.81-7.42 9.2-7.42a8.28 8.28 0 0 1 1.31.11v7.11a12.86 12.86 0 0 0-1.76-.11c-5.85 0-8.47 5.12-8.47 10.57V35h4.15v5.4H85zm38.36-12.54h1.82v-1c0-3.7-2.33-5-5.34-5a16 16 0 0 0-8.19 2.79l-2.67-5a19.71 19.71 0 0 1 11.48-3.58c7.79 0 11.94 4 11.94 11.42v11.6a1.11 1.11 0 0 0 1.25 1.31h2.61v5.4h-6.82c-2.67 0-3.69-1.42-3.69-3.07V37a5.7 5.7 0 0 1 .17-1.48h-.11a10.09 10.09 0 0 1-9.16 5.48c-4.95 0-9.61-2.9-9.61-8.81-.04-8.83 11.66-9.73 16.32-9.73zm-4.83 13.19c3.92 0 6.71-4.21 6.71-7.84v-1H124c-2.84 0-9.72.45-9.72 4.83a3.91 3.91 0 0 0 4.25 4zm20.03-18.88h-4.43v-5.4h4.66v-7.9h7v7.9h6.59v5.4h-6.59V29c0 4.95 3.75 5.63 5.8 5.63.79 0 1.31-.06 1.31-.06v5.91a13.24 13.24 0 0 1-2.22.17c-4.09 0-12.11-1.2-12.11-10.91zM155.52 35h4.21V5.4h-4.49V0h11.71v14.1a16.54 16.54 0 0 1-.17 2.44h.11a11.31 11.31 0 0 1 10-5.85c6.42 0 10.12 3.35 10.12 11V35h4.21v5.4H179.8V23.19c0-3.52-.91-5.91-4.55-5.91-5.12 0-8.3 4.44-8.3 9.78V35h4.15v5.4h-15.58zm52.54-24.31c8.87 0 16 6.31 16 15.18S216.93 41 208.11 41s-16-6.25-16-15.18 7.13-15.13 15.95-15.13zm.06 24.22c4.66 0 8.59-3.64 8.59-9a8.62 8.62 0 1 0-17.23 0c-.01 5.36 3.92 8.99 8.63 8.99zm17.41.09h4.21V18a1.14 1.14 0 0 0-1.25-1.25h-3.24v-5.4h7.62c2.56 0 3.75 1.19 3.75 3.24v1.31a8 8 0 0 1-.11 1.25h.11a11.63 11.63 0 0 1 10.69-6.48c6.2 0 9.72 3.35 9.72 11V35h4.21v5.4h-11.38V23.19c0-3.52-1-5.91-4.6-5.91-5.23 0-8.3 5-8.3 10.06V35h4.15v5.4h-15.58zM100 75.12v3c0 2.62 3.3 4.15 7.11 4.15 4.09 0 7-1.76 7-5 0-4.09-4.6-5.4-9.26-7.22-5.4-2-10.69-4.49-10.69-11.71 0-8.13 6.6-11.26 13.53-11.26 6.37 0 12.79 2.44 12.79 7.11v5.29h-6.76v-2.72c0-2-3-3.13-6-3.13-3.3 0-6 1.36-6 4.43 0 3.7 3.75 5 8 6.6 6 2.16 12.05 4.55 12.05 12.11 0 8.24-6.94 12.05-14.55 12.05-6.71 0-13.87-3-13.87-9.1v-4.6zm27.87 18.99V65.8a1.14 1.14 0 0 0-1.25-1.25h-3.24v-5.4h7.45c2.67 0 3.58 1.25 3.58 2.73V62c0 .68-.06 1.31-.06 1.31h.11s2.5-4.89 9.32-4.89c7.84 0 12.85 6.2 12.85 15.18 0 9.21-5.63 15.18-13.25 15.18a10.12 10.12 0 0 1-8.38-4.05h-.11a16.75 16.75 0 0 1 .17 2.5v6.88h4.21v5.4h-15.61v-5.4zm14.21-11.37c4 0 7.28-3.24 7.28-9 0-5.52-3-9.1-7.22-9.1-3.75 0-7.28 2.73-7.28 9.15 0 4.51 2.5 8.95 7.22 8.95zM175 58.46c8.87 0 16 6.31 16 15.18s-7.15 15.18-16 15.18-16-6.25-16-15.18 7.17-15.18 16-15.18zm0 24.22c4.66 0 8.59-3.64 8.59-9a8.62 8.62 0 1 0-17.23 0c.04 5.32 3.96 9 8.64 9zm17.2.06h4.21V65.8a1.14 1.14 0 0 0-1.25-1.25h-3.24v-5.4h7.56c2.56 0 3.87 1.08 3.87 3.52v1.71a13 13 0 0 1-.12 1.82h.12c1.31-4.15 4.77-7.45 9.21-7.45a8.28 8.28 0 0 1 1.31.11V66a12.86 12.86 0 0 0-1.76-.11c-5.85 0-8.47 5.12-8.47 10.57v6.31h4.15v5.4H192.2zm28.25-18.19H216v-5.4h4.66v-7.9h7v7.9h6.59v5.4h-6.59v12.22c0 4.95 3.75 5.63 5.8 5.63.79 0 1.31-.06 1.31-.06v5.91a13.24 13.24 0 0 1-2.22.17c-4.09 0-12.11-1.19-12.11-10.91zM237 78.47h6.14v1.71c0 2 2.67 3 5.68 3s4.95-1 4.95-3c0-2.44-2.73-3.07-6.59-4.49-4.26-1.48-9.15-3.47-9.15-9 0-6.14 6.14-8.3 11.43-8.3 4.21 0 10.46 1.65 10.46 6v3.7h-6.2v-1.55c0-1.48-1.71-2.39-4.26-2.39-2.27 0-4.21.79-4.21 2.61 0 2.39 2.84 3.36 6.08 4.32 4.41 1.43 9.67 3.24 9.67 8.92 0 5.86-5.57 8.81-12.22 8.81-5.29 0-11.77-2.27-11.77-7zm28-68.03a3.9 3.9 0 0 1 4 3.83 4 4 0 1 1-4-3.83zm0 6.82a3 3 0 1 0-3-3 3 3 0 0 0 3 2.99zm-1.39-4.93h1.69a1.2 1.2 0 0 1 1.33 1.21 1 1 0 0 1-.72 1 1.09 1.09 0 0 1 .15.22l.77 1.38h-1l-.69-1.41h-.53v1.41h-.95zm1.47 1.79a.54.54 0 0 0 .59-.58.52.52 0 0 0-.58-.56h-.53v1.14z" id="Layer_1" data-name="Layer 1"/></g></svg>
